<?xml version="1.0" encoding="UTF-8"?>
<svg id="Layer_2" data-name="Layer 2" xmlns="http://www.w3.org/2000/svg" viewBox="0 0 197.2 197.2">
  <defs>
    <style>
      .cls-1 {
        fill: #a29061;
      }
    </style>
  </defs>
  <g id="Layer_1-2" data-name="Layer 1" focusable="false">
    <path class="cls-1" d="M98.6,0C44.14,0,0,44.14,0,98.6s44.14,98.6,98.6,98.6,98.6-44.14,98.6-98.6S153.06,0,98.6,0ZM87.11,161.19c-18.35,5.83-34.98,4.29-37.21-3.43-2.23-7.72,10.8-18.86,28.98-24.86,2.74-.86,5.66-1.71,8.57-2.23-13.2,5.14-22.12,13.2-20.41,19.03,1.89,6.34,15.78,7.37,31.04,2.4,5.66-1.71,10.97-4.29,15.95-7.54-4.46,6.17-14.4,12.52-26.92,16.63ZM145.93,105.97c4.46,13.2-8.23,30.69-29.84,43.04,7.72-8.4,11.15-16.98,8.75-24.18-4.97-14.75-33.78-17.15-63.96-5.49-8.23,3.09-15.95,7.2-23.32,12,6.52-12.52,22.46-25.38,43.04-33.27,20.92-8.06,41.33-8.92,53.84-3.6,1.37-4.12,1.54-8.4.34-12.52-5.49-17.32-37.04-20.06-70.48-6.34-9.09,3.77-17.66,8.4-25.55,14.06,7.2-14.58,24.69-29.84,47.5-39.1,33.61-13.72,65.85-9.6,72.02,9.26,3.77,11.66-3.26,26.24-17.15,38.93,2.23,1.89,3.94,4.46,4.8,7.2Z"/>
  </g>
</svg>